<svg id="Publication-paper-icon" xmlns="http://www.w3.org/2000/svg" width="44" height="44" viewBox="0 0 44 44">
  <circle id="Ellipse_3" data-name="Ellipse 3" cx="22" cy="22" r="22" fill="#2c4255"/>
  <path id="file-lines-solid" d="M3.319,0A3.322,3.322,0,0,0,0,3.319V23.231A3.322,3.322,0,0,0,3.319,26.55H16.594a3.322,3.322,0,0,0,3.319-3.319V8.3H13.275a1.658,1.658,0,0,1-1.659-1.659V0Zm9.956,0V6.637h6.637ZM5.808,13.275h8.3a.83.83,0,1,1,0,1.659h-8.3a.83.83,0,1,1,0-1.659Zm0,3.319h8.3a.83.83,0,0,1,0,1.659h-8.3a.83.83,0,0,1,0-1.659Zm0,3.319h8.3a.83.83,0,0,1,0,1.659h-8.3a.83.83,0,0,1,0-1.659Z" transform="translate(12.044 8.725)" fill="#fff"/>
</svg>
